<?xml version="1.0" encoding="utf-8"?>
<!-- Generator: Adobe Illustrator 22.1.0, SVG Export Plug-In . SVG Version: 6.00 Build 0)  -->
<svg version="1.1" id="Livello_1" xmlns="http://www.w3.org/2000/svg" xmlns:xlink="http://www.w3.org/1999/xlink" x="0px" y="0px"
	 viewBox="0 0 300 300" style="enable-background:new 0 0 300 300;" xml:space="preserve">
<path d="M272.2,180.7c-16.9,0-30.7-13.8-30.7-30.7c0-10-8.2-18.2-18.2-18.2s-18.2,8.1-18.2,18.2c0,16.9-13.8,30.7-30.7,30.7
	s-30.7-13.8-30.7-30.7c0-10-8.2-18.2-18.2-18.2s-18.2,8.1-18.2,18.2c0,16.9-13.8,30.7-30.7,30.7S46,166.9,46,150
	c0-10-8.1-18.2-18.2-18.2S9.6,140,9.6,150c0,3.4-2.8,6.3-6.2,6.3s-6.3-2.8-6.3-6.3c0-16.9,13.8-30.7,30.7-30.7s30.7,13.8,30.7,30.7
	c0,10,8.1,18.2,18.2,18.2S94.9,160,94.9,150c0-16.9,13.8-30.7,30.7-30.7s30.7,13.8,30.7,30.7c0,10,8.2,18.2,18.2,18.2
	s18.2-8.2,18.2-18.2c0-16.9,13.8-30.7,30.7-30.7S254,133.1,254,150c0,10,8.1,18.2,18.2,18.2c10,0,18.2-8.2,18.2-18.2
	c0-3.4,2.8-6.3,6.3-6.3c3.4,0,6.3,2.8,6.3,6.3C302.9,166.9,289.1,180.7,272.2,180.7z"/>
</svg>
